<svg width="32" height="31" viewBox="0 0 32 31" fill="none" xmlns="http://www.w3.org/2000/svg">
<path fill-rule="evenodd" clip-rule="evenodd" d="M0.000104904 11.4684C0.000104904 14.7565 2.43423 17.4673 5.57254 17.8441C5.87574 17.8805 6.11898 18.1318 6.11898 18.4418V25.9967C6.11898 26.3138 6.37214 26.5709 6.68443 26.5709H8.96383C9.27611 26.5709 9.52927 26.828 9.52927 27.1451V29.7278C9.52927 30.2291 10.1177 30.4897 10.4795 30.1485L14.111 26.7243C14.2156 26.6257 14.3531 26.5709 14.4958 26.5709H25.9498C26.2621 26.5709 26.5153 26.3138 26.5153 25.9967V18.2943C26.5153 18.0127 26.7174 17.7754 26.987 17.7092C29.7592 17.0284 31.8184 14.4926 31.8184 11.4684C31.8184 7.9225 28.9875 5.04798 25.4955 5.04798C25.1202 5.04798 24.7526 5.08118 24.3953 5.14485C24.1258 5.19287 23.8524 5.06037 23.7258 4.81404C22.2557 1.95309 19.307 0 15.9091 0C12.5112 0 9.56249 1.95307 8.09238 4.81399C7.9658 5.06032 7.69247 5.19281 7.42296 5.1448C7.06572 5.08117 6.69815 5.04798 6.32295 5.04798C2.83094 5.04798 0.000104904 7.9225 0.000104904 11.4684ZM16.6672 18.9394C16.6672 18.5211 16.3102 18.1819 15.8698 18.1819H9.88888C9.44846 18.1819 9.09143 18.5211 9.09143 18.9394C9.09143 19.3578 9.44846 19.697 9.88888 19.697H15.8698C16.3102 19.697 16.6672 19.3578 16.6672 18.9394ZM21.9615 21.2122C22.3846 21.2122 22.7276 21.5514 22.7276 21.9698C22.7276 22.3882 22.3846 22.7274 21.9615 22.7274H9.85731C9.43419 22.7274 9.09119 22.3882 9.09119 21.9698C9.09119 21.5514 9.43419 21.2122 9.85731 21.2122H21.9615Z" fill="#FF6339"/>
</svg>
